<?xml version="1.0" encoding="iso-8859-1"?>
<!-- Generator: Adobe Illustrator 19.0.0, SVG Export Plug-In . SVG Version: 6.00 Build 0)  -->
<svg version="1.1" id="Capa_1" xmlns="http://www.w3.org/2000/svg" xmlns:xlink="http://www.w3.org/1999/xlink" x="0px" y="0px"
	 viewBox="0 0 511.999 511.999" style="enable-background:new 0 0 511.999 511.999;" xml:space="preserve">
<path style="fill:#EAE8E8;" d="M504.498,477.472c0,14.927-12.101,27.027-27.027,27.027H34.528
	c-14.927,0-27.027-12.101-27.027-27.027V34.527c0-14.926,12.1-27.027,27.027-27.027h442.944c14.927,0,27.027,12.101,27.027,27.027
	V477.472z"/>
<path style="fill:#D3D1D1;" d="M27.502,477.472V34.527c0-14.926,12.1-27.027,27.027-27.027H34.528
	C19.601,7.5,7.501,19.601,7.501,34.527v442.945c0,14.927,12.101,27.027,27.027,27.027h20.001
	C39.602,504.5,27.502,492.399,27.502,477.472z"/>
<path style="fill:#EA473B;" d="M394.005,168.893H314.66c-2.23,0-4.152,1.567-4.6,3.752c-4.646,22.63-5.102,26.575-8.833,35.464
	c-4.828,11.522-11.192,22.771-21.319,30.122c-43.774,29.636-83.301-8.389-111.856,87.948c-0.422,1.419-0.148,2.956,0.739,4.143
	c1.936,2.6-2.411,1.887,76.087,1.887c2.186,0,4.083-1.509,4.575-3.64c6.45-27.9,21.717-52.29,34.878-64.251
	c30.933-28.305,60.704-4.021,91.874-40.006c8.125-9.41,11.677-16.758,22.263-49.268
	C399.458,172.013,397.198,168.893,394.005,168.893z"/>
<path style="fill:#F7AC16;" d="M333.808,83.22h-79.343c-2.231,0-4.152,1.568-4.603,3.752c-4.52,22.017-5.396,31.145-14.657,47.473
	c-18.622,32.882-49.998,29.154-74.76,36.382c-30.542,8.837-42.749,36.479-52.589,69.679c-0.893,3.008,1.368,6.031,4.502,6.031
	h72.324c2.187,0,4.083-1.51,4.575-3.641c6.473-28.013,21.632-52.206,35.383-64.736c30.095-27.423,60.337-3.715,91.369-39.52
	c8.492-9.839,11.992-17.744,22.263-49.27C339.261,86.365,337.019,83.22,333.808,83.22z"/>
<path style="fill:#D82B27;" d="M188.054,326.18c3.391-11.44,6.778-20.849,10.663-29.607c33.561-73.628,91.847-15.28,122.512-88.463
	c3.758-8.955,4.229-13.039,8.833-35.464c0.447-2.185,2.37-3.752,4.6-3.752h-20.001c-2.23,0-4.152,1.567-4.6,3.752l-4.125,20.094
	c-3.549,16.818-12.772,35.872-26.027,45.492c-43.774,29.636-83.301-8.389-111.856,87.948c-0.422,1.419-0.148,2.956,0.739,4.143
	c1.826,2.452,2.17,1.887,23.764,1.887C189.422,332.21,187.16,329.188,188.054,326.18z"/>
<path style="fill:#F49B19;" d="M127.858,240.506c28.929-97.589,70.353-57.906,112.039-88.08
	c13.809-10.553,22.461-29.336,25.843-45.359l4.125-20.094c0.45-2.184,2.371-3.752,4.603-3.752h-20.001
	c-2.231,0-4.152,1.568-4.603,3.752c-4.408,21.471-5.303,30.98-14.657,47.473c-18.622,32.882-49.998,29.154-74.76,36.382
	c-30.542,8.837-42.749,36.479-52.589,69.679c-0.893,3.008,1.368,6.031,4.502,6.031h20.001
	C129.222,246.538,126.966,243.51,127.858,240.506z"/>
<polygon points="125.335,368.865 98.511,393.155 107.162,368.87 91.181,368.865 69.358,427.292 85.105,427.298 97.31,395.9 
	105.398,427.292 123.867,427.292 115.957,395.815 144.229,368.865 "/>
<path d="M154.376,428.694c21.329-1.289,26.929-15.858,32.606-31.759c10.773-29.985-18.721-33.831-35.16-26.731
	c-5.13,2.221-9.1,5.776-12.325,10.257c-3.795,5.257-10.077,19.023-10.701,28.247C127.987,420.513,135.08,429.853,154.376,428.694z
	 M155.416,382.477c6.44-6.928,19.842-3.966,17.388,4.967c-1.926,7.157-5.252,19.133-9.886,24.943
	c-5.858,7.337-17.358,4.695-17.778-2.418C144.87,404.27,151.79,386.36,155.416,382.477z"/>
<polygon points="212.397,383.655 213.814,427.298 236.515,427.298 258.323,368.865 243.469,368.865 228.071,411.358 
	226.854,368.865 203.32,368.865 181.93,427.298 196.841,427.298 "/>
<path d="M297.766,427.304l1.041-58.444h-20.559l-38.378,58.44h15.867l7.928-11.575l19.141-0.037l-0.325,11.617h15.285V427.304z
	 M271.432,403.953l12.864-21.293l-0.787,21.261L271.432,403.953z"/>
<polygon points="370.84,427.299 392.774,368.881 366.356,368.881 343.328,406.59 348.462,368.873 322.339,368.873 300.515,427.297 
	315.397,427.297 331.554,383.961 328.192,427.304 343.938,427.304 371.665,384.575 355.502,427.299 "/>
<polygon points="418.39,368.875 403.035,368.875 381.148,427.304 396.283,427.304 "/>
<path d="M394.005,161.393H314.66c-5.767,0-10.792,4.1-11.947,9.745c-3.025,14.733-7.463,47.319-27.112,60.953
	c-8.758,5.929-10.955,6.96-22.876,10.044c-34.81,8.968-67.778,0.66-91.862,81.91c-2.326,7.824,3.568,15.668,11.692,15.668h72.323
	c5.711,0,10.599-3.887,11.884-9.451c4.947-21.401,16.127-44.336,33.125-60.88c27.226-24.804,58.82-1.872,91.996-40.164
	c11.099-12.854,14.579-23.78,23.716-51.842C408.16,169.527,402.309,161.393,394.005,161.393z M337.092,238.563
	c-27.414,3.827-34.617,4.986-45.514,11.168c-24.345,13.834-42.027,47.421-48.91,74.978h-66.336
	c4.889-15.854,12.717-37.237,24.848-48.654c20.883-19.897,46.76-12.522,72.138-25.052c31.108-15.127,37.747-45.964,43.629-74.611
	h73.184C383.493,196.432,374.567,233.385,337.092,238.563z"/>
<path d="M333.808,75.72h-79.343c-5.76,0-10.786,4.095-11.95,9.745l-4.117,20.053c-3.911,18.536-14.103,37.697-31.878,46.343
	c-21.578,10.654-51.277,4.209-75.851,27.629c-15.294,14.394-24.031,38.733-30.004,58.882c-2.319,7.811,3.558,15.667,11.693,15.667
	h72.324c5.711,0,10.598-3.887,11.884-9.453c5.899-25.529,19.701-48.563,32.637-60.412l-0.001-0.001
	c0.122-0.113,0.263-0.247,0.372-0.354v0.001c12.216-11.806,27.315-12.989,49.379-16.072c28.186-3.886,50.24-26.149,58.348-52.44
	c2.848-7.904,5.574-15.848,8.098-23.594C347.976,83.874,342.118,75.72,333.808,75.72z M310.341,133.728
	c-29.299,33.81-61.974,8.467-93.796,41.866c-17.184,18.208-28.326,40.429-34.073,63.444h-66.336
	c4.929-15.982,12.676-37.199,24.85-48.656c20.897-19.917,46.687-12.485,72.137-25.051c33.122-16.113,38.633-50.286,43.627-74.611
	h73.185C320.912,117.942,317.967,124.896,310.341,133.728z"/>
<path d="M477.471,0h-203.97c-4.143,0-7.5,3.358-7.5,7.5s3.357,7.5,7.5,7.5h203.97c10.768,0,19.526,8.76,19.526,19.526v194.509
	c0,4.142,3.357,7.5,7.5,7.5c4.143,0,7.5-3.358,7.5-7.5V34.527C511.999,15.489,496.51,0,477.471,0z"/>
<path d="M504.498,256.538c-4.143,0-7.5,3.358-7.5,7.5v213.434c0,10.767-8.76,19.526-19.526,19.526H34.528
	c-10.767,0-19.526-8.76-19.526-19.526V34.527c0-10.767,8.76-19.526,19.526-19.526h203.97c4.142,0,7.5-3.358,7.5-7.5
	s-3.358-7.5-7.5-7.5H34.528C15.489,0,0.001,15.489,0.001,34.527v442.945c0,19.038,15.489,34.527,34.527,34.527h442.944
	c19.038,0,34.527-15.489,34.527-34.527V264.038C511.999,259.896,508.641,256.538,504.498,256.538z"/>
<g>
</g>
<g>
</g>
<g>
</g>
<g>
</g>
<g>
</g>
<g>
</g>
<g>
</g>
<g>
</g>
<g>
</g>
<g>
</g>
<g>
</g>
<g>
</g>
<g>
</g>
<g>
</g>
<g>
</g>
</svg>
