<svg id="Layer_1" enable-background="new 0 0 512 512" height="512" viewBox="0 0 512 512" width="512" xmlns="http://www.w3.org/2000/svg"><g><path d="m71.124 450.753c-16.913 0-30.624 13.71-30.624 30.624s13.711 30.623 30.624 30.623h30.507l37.197-61.247z" fill="#ffc697"/><path d="m440.879 61.25v420.13c0 16.91-13.71 30.62-30.63 30.62h-343.67c15 0 27.48-10.77 30.11-25 .34-1.82.52-3.7.52-5.62v-450.76c0-16.91 13.71-30.62 30.62-30.62l288.05 56.36z" fill="#fff7d7"/><path d="m415.879 56.36 25 4.89v420.13c0 16.91-13.71 30.62-30.63 30.62h-343.67c15 0 27.48-10.77 30.11-25h288.56c16.92 0 30.63-13.71 30.63-30.62z" fill="#ffe5b6"/><g fill="#73c0ff"><path d="m154.828 135.629h51.522c4.143 0 7.5-3.358 7.5-7.5s-3.357-7.5-7.5-7.5h-51.522c-4.143 0-7.5 3.358-7.5 7.5s3.358 7.5 7.5 7.5z"/><path d="m154.828 170.629h237.016c4.143 0 7.5-3.358 7.5-7.5s-3.357-7.5-7.5-7.5h-237.016c-4.143 0-7.5 3.358-7.5 7.5s3.358 7.5 7.5 7.5z"/><path d="m391.844 190.549h-49.509c-4.143 0-7.5 3.358-7.5 7.5s3.357 7.5 7.5 7.5h49.509c4.143 0 7.5-3.358 7.5-7.5s-3.357-7.5-7.5-7.5z"/><path d="m154.828 205.549h152.91c4.143 0 7.5-3.358 7.5-7.5s-3.357-7.5-7.5-7.5h-152.91c-4.143 0-7.5 3.358-7.5 7.5s3.358 7.5 7.5 7.5z"/><path d="m154.828 260.322h51.522c4.143 0 7.5-3.358 7.5-7.5s-3.357-7.5-7.5-7.5h-51.522c-4.143 0-7.5 3.358-7.5 7.5s3.358 7.5 7.5 7.5z"/><path d="m391.844 280.322h-237.016c-4.143 0-7.5 3.358-7.5 7.5s3.357 7.5 7.5 7.5h237.016c4.143 0 7.5-3.358 7.5-7.5s-3.357-7.5-7.5-7.5z"/><path d="m154.828 330.242h49.508c4.143 0 7.5-3.358 7.5-7.5s-3.357-7.5-7.5-7.5h-49.508c-4.143 0-7.5 3.358-7.5 7.5s3.358 7.5 7.5 7.5z"/><path d="m391.844 315.242h-152.91c-4.143 0-7.5 3.358-7.5 7.5s3.357 7.5 7.5 7.5h152.91c4.143 0 7.5-3.358 7.5-7.5s-3.357-7.5-7.5-7.5z"/><path d="m154.828 401.545h63.508c4.143 0 7.5-3.358 7.5-7.5s-3.357-7.5-7.5-7.5h-63.508c-4.143 0-7.5 3.358-7.5 7.5s3.358 7.5 7.5 7.5z"/><path d="m268.336 421.474h-113.508c-4.143 0-7.5 3.358-7.5 7.5s3.357 7.5 7.5 7.5h113.508c4.143 0 7.5-3.358 7.5-7.5s-3.357-7.5-7.5-7.5z"/></g><path d="m399.349 411.011c0 17.778-14.479 32.246-32.257 32.246-3.749 0-7.363-.642-10.707-1.835-12.542-4.414-21.549-16.382-21.549-30.41 0-14.04 9.007-26.008 21.549-30.422 3.344-1.194 6.958-1.835 10.707-1.835 17.778-.001 32.257 14.466 32.257 32.256z" fill="#ff394c"/><path d="m399.349 411.011c0 17.778-14.479 32.246-32.257 32.246-3.749 0-7.363-.642-10.707-1.835 12.542-4.414 21.55-16.382 21.55-30.41 0-14.04-9.007-26.008-21.55-30.422 3.344-1.194 6.958-1.835 10.707-1.835 17.778-.001 32.257 14.466 32.257 32.256z" fill="#e81a5a"/><path d="m440.876 0h-313.048c16.913 0 30.624 13.71 30.624 30.624s-13.711 30.624-30.624 30.624h313.048c16.913 0 30.624-13.711 30.624-30.624s-13.711-30.624-30.624-30.624z" fill="#ffc697"/></g></svg>