<svg id="Layer_1" enable-background="new 0 0 512 512" height="512" viewBox="0 0 512 512" width="512" xmlns="http://www.w3.org/2000/svg"><g><g><path clip-rule="evenodd" d="m192.83 98.357h12.926 99.666 11.395v-29.449c0-51.811-68.854-68.08-96.237-38.405-29.934 2.636-27.751 42.514-27.751 47.758v20.096z" fill="#ffdb4e" fill-rule="evenodd"/></g><g><path clip-rule="evenodd" d="m316.818 98.357v-30.497c-.68-38.405-39.543-56.884-70.271-51.046 24.151 4.365 46.488 21.994 46.999 51.046.198 10.09.028 20.379.028 30.497z" fill="#ffaf5d" fill-rule="evenodd"/></g><g><path clip-rule="evenodd" d="m254.483 337.231h70.101v-53.285-33.048l73.389 8.786 6.633-54.163-60.435-23.666c-10.063-4.138-12.728-3.94-23.613-3.94h-35.745v10.912c0 17.913-13.323 32.594-29.622 32.594s-29.65-14.682-29.65-32.594v-10.912h-37.162c-8.646 0-12.076-.142-18.17 1.871-1.587.539-3.345 1.219-5.414 2.069l-60.463 23.666 6.633 54.163 73.418-8.786v33.048 53.285z" fill="#ccf49f" fill-rule="evenodd"/></g><g><path clip-rule="evenodd" d="m86.785 211.813c-38.636 13.86-23.896 58.443 7.257 51.584l16.923-3.713-6.633-54.163z" fill="#ffece4" fill-rule="evenodd"/></g><g><path clip-rule="evenodd" d="m414.897 263.397c31.153 6.859 45.893-37.724 7.257-51.584l-17.547-6.292-6.633 54.163z" fill="#ffece4" fill-rule="evenodd"/></g><g><path clip-rule="evenodd" d="m254.824 180.041c4.961 0 9.921-1.02 15.534-3.118 5.046-1.871 9.893-4.45 14.457-7.568 18.539-12.698 32.003-34.21 32.003-52.038v-18.96l-63.269-12.017-60.719 12.017v18.961c0 18.054 13.833 39.879 32.712 52.519 4.365 2.891 8.986 5.328 13.776 7.086 5.613 2.098 10.545 3.118 15.506 3.118z" fill="#ffece4" fill-rule="evenodd"/></g><g><path clip-rule="evenodd" d="m184.382 448.845h70.101l15.988-54.702-15.988-56.912h-70.101z" fill="#808b95" fill-rule="evenodd"/></g><g><path clip-rule="evenodd" d="m254.483 448.845h70.101v-53.114-58.5h-70.101z" fill="#808b95" fill-rule="evenodd"/></g><g><path clip-rule="evenodd" d="m292.014 497c17.915 0 32.57-14.682 32.57-32.594v-15.56h-70.101v15.56c0 17.913 14.655 32.594 32.57 32.594z" fill="#ffece4" fill-rule="evenodd"/></g><g><path clip-rule="evenodd" d="m216.953 497h4.932c17.943 0 32.599-14.682 32.599-32.594v-6.15-9.41h-70.101v15.56c-.001 17.912 14.655 32.594 32.57 32.594z" fill="#ffece4" fill-rule="evenodd"/></g><g><path clip-rule="evenodd" d="m284.814 169.356c18.539-12.698 32.003-34.21 32.003-52.038v-18.961h-11.395c-4.535 0-8.391-1.049-11.849-2.749v18.961c0 17.828-13.493 39.34-32.003 52.038-4.564 3.118-9.439 5.697-14.485 7.568-3.005 1.134-5.839 1.956-8.561 2.466.255.085.51.198.794.283 5.613 2.097 10.545 3.118 15.506 3.118s9.921-1.02 15.534-3.118c5.045-1.871 9.892-4.451 14.456-7.568z" fill="#ffddce" fill-rule="evenodd"/></g><g><path clip-rule="evenodd" d="m225.542 188.827c0 17.913 13.351 32.594 29.65 32.594s29.622-14.682 29.622-32.594v-10.912-8.56c-4.564 3.118-9.411 5.697-14.457 7.568-5.613 2.097-10.573 3.118-15.534 3.118s-9.893-1.02-15.506-3.118c-4.791-1.757-9.411-4.195-13.776-7.086v8.078 10.912z" fill="#ffddce" fill-rule="evenodd"/></g><g><path clip-rule="evenodd" d="m225.542 186.787c8.306 5.527 19.191 10.203 29.282 10.203 10.375 0 21.543-4.903 29.991-10.685v-8.39-8.56c-8.447 5.782-19.616 10.685-29.991 10.685-4.961 0-9.893-1.02-15.506-3.118-4.876-1.786-9.468-4.223-13.776-7.086z" fill="#ffcbbe" fill-rule="evenodd"/></g><g><path clip-rule="evenodd" d="m226.987 337.231h27.496v111.614h-27.496z" fill="#566b74" fill-rule="evenodd"/></g><g><path clip-rule="evenodd" d="m297.088 337.231h27.496v111.614h-27.496z" fill="#566b74" fill-rule="evenodd"/></g><g><path clip-rule="evenodd" d="m221.885 497c17.943 0 32.599-14.682 32.599-32.594v-6.15-9.41h-27.496v9.41 6.15c0 13.973-8.901 25.962-21.317 30.554 3.515 1.304 7.313 2.041 11.282 2.041h4.932z" fill="#ffddce" fill-rule="evenodd"/></g><g><path clip-rule="evenodd" d="m292.014 497c17.915 0 32.57-14.682 32.57-32.594v-6.15-9.41h-27.496v9.41 6.15c0 13.973-8.901 25.962-21.317 30.554 3.515 1.304 7.313 2.041 11.282 2.041h4.961z" fill="#ffddce" fill-rule="evenodd"/></g><g><path clip-rule="evenodd" d="m66.603 251.635c3.487-6.292 9.921-11.961 19.956-15.56l17.547-6.292 3.061-1.19-2.835-23.071-17.547 6.292c-22.847 8.19-27.042 27.124-20.182 39.821z" fill="#ffddce" fill-rule="evenodd"/></g><g><path clip-rule="evenodd" d="m107.166 228.592 57.373-22.476c10.063-4.138 12.728-3.94 23.613-3.94h40.025c-1.672-4.081-2.636-8.616-2.636-13.35v-2.041-8.871h-37.162c-8.646 0-12.076-.142-18.17 1.871-1.587.539-3.345 1.219-5.414 2.069l-60.463 23.666z" fill="#b3e59f" fill-rule="evenodd"/></g><g><path clip-rule="evenodd" d="m320.332 202.177c10.885 0 13.521-.198 23.584 3.94l57.855 22.646 2.835-23.241-60.435-23.666c-10.063-4.138-12.728-3.94-23.613-3.94h-35.745v8.39 2.523c0 4.733-.935 9.268-2.608 13.35h38.127z" fill="#b3e59f" fill-rule="evenodd"/></g><g><path clip-rule="evenodd" d="m404.38 229.783 17.546 6.292c10.261 3.685 16.753 9.523 20.183 16.014 7.172-12.698 3.175-31.999-19.956-40.275l-17.547-6.292-2.835 23.241z" fill="#ffddce" fill-rule="evenodd"/></g><g><path clip-rule="evenodd" d="m181.293 98.357h144.511c2.948 0 5.386-2.437 5.386-5.385v-25.623c0-2.948-2.438-5.357-5.386-5.357h-144.511c-2.976 0-5.386 2.409-5.386 5.357v25.622c0 2.948 2.409 5.386 5.386 5.386z" fill="#808b95" fill-rule="evenodd"/></g><g><path clip-rule="evenodd" d="m290.795 98.357h35.008c2.948 0 5.386-2.437 5.386-5.385v-25.623c0-2.948-2.438-5.357-5.386-5.357h-35.008c2.976 0 5.386 2.409 5.386 5.357v25.622c0 2.948-2.409 5.386-5.386 5.386z" fill="#566b74" fill-rule="evenodd"/></g><g><path clip-rule="evenodd" d="m7.5 19.251v50.025c0 2.352 1.899 4.28 4.252 4.28h63.751c2.353 0 4.252-1.927 4.252-4.28v-9.608-30.808-9.608c0-2.352-1.899-4.251-4.252-4.251h-63.751c-2.353-.001-4.252 1.898-4.252 4.25z" fill="#808b95" fill-rule="evenodd"/></g><g><path clip-rule="evenodd" d="m79.755 28.86v30.809l24.406 8.588c2.466.879 4.762-2.126 4.762-4.762v-38.462c0-2.608-2.296-5.64-4.762-4.762z" fill="#e7ecf1" fill-rule="evenodd"/></g><g><path clip-rule="evenodd" d="m432.216 28.86v30.809 9.608c0 2.352 1.928 4.28 4.252 4.28h63.78c2.324 0 4.252-1.927 4.252-4.28v-50.026c0-2.352-1.928-4.251-4.252-4.251h-63.78c-2.324 0-4.252 1.899-4.252 4.251z" fill="#808b95" fill-rule="evenodd"/></g><g><path clip-rule="evenodd" d="m403.048 25.033v38.461c0 2.636 2.324 5.64 4.791 4.762l24.378-8.588v-30.808l-24.378-8.588c-2.467-.879-4.791 2.154-4.791 4.761z" fill="#e7ecf1" fill-rule="evenodd"/></g><g><path clip-rule="evenodd" d="m7.5 380.539v50.054c0 2.324 1.899 4.251 4.252 4.251h63.751c2.353 0 4.252-1.927 4.252-4.251v-9.608-30.837-9.608c0-2.352-1.899-4.251-4.252-4.251h-63.751c-2.353-.002-4.252 1.897-4.252 4.25z" fill="#808b95" fill-rule="evenodd"/></g><g><path clip-rule="evenodd" d="m79.755 390.147v30.837l24.406 8.588c2.466.85 4.762-2.154 4.762-4.79v-38.461c0-2.608-2.296-5.64-4.762-4.762z" fill="#e7ecf1" fill-rule="evenodd"/></g><g><path clip-rule="evenodd" d="m432.216 390.147v30.837 9.608c0 2.324 1.928 4.251 4.252 4.251h63.78c2.324 0 4.252-1.927 4.252-4.251v-50.054c0-2.352-1.928-4.251-4.252-4.251h-63.78c-2.324 0-4.252 1.899-4.252 4.251z" fill="#808b95" fill-rule="evenodd"/></g><g><path clip-rule="evenodd" d="m403.048 386.321v38.461c0 2.636 2.324 5.64 4.791 4.79l24.378-8.588v-30.837l-24.378-8.588c-2.467-.878-4.791 2.154-4.791 4.762z" fill="#e7ecf1" fill-rule="evenodd"/></g><g><path d="m111.068 375.858c-2.827-1.994-6.263-2.489-9.396-1.374l-14.466 5.09c-.493-6.03-5.549-10.787-11.703-10.787h-34.367v-287.73h34.368c6.155 0 11.211-4.77 11.703-10.815l14.44 5.081c1.114.396 2.261.592 3.404.592 2.106 0 4.196-.664 6.029-1.957 3.247-2.291 5.345-6.397 5.345-10.462v-38.463c0-4.061-2.102-8.167-5.354-10.461-2.826-1.995-6.261-2.492-9.397-1.376l-14.466 5.09c-.495-6.028-5.55-10.786-11.705-10.786h-63.751c-6.48 0-11.752 5.271-11.752 11.751v50.025c0 6.496 5.272 11.78 11.752 11.78h14.384v287.73h-14.384c-6.48.001-11.752 5.273-11.752 11.753v50.054c0 6.479 5.272 11.751 11.752 11.751h14.384v31.228h-15.631c-4.142 0-7.5 3.357-7.5 7.5s3.358 7.5 7.5 7.5h46.261c4.142 0 7.5-3.357 7.5-7.5s-3.358-7.5-7.5-7.5h-15.63v-31.228h34.368c6.154 0 11.21-4.758 11.703-10.787l14.51 5.105c1.084.374 2.199.559 3.31.559 2.129 0 4.241-.678 6.087-1.993 3.226-2.3 5.311-6.4 5.311-10.445v-38.461c-.001-4.062-2.103-8.169-5.357-10.464zm-9.644-316.515-14.168-4.985v-20.187l14.168-4.985zm-86.424-36.843h57.255v43.557h-57.255zm57.255 404.844h-57.255v-43.557h57.255zm29.169-6.686-14.168-4.985v-20.214l14.168-4.985z"/><path d="m286.12 373.931c1.089.555 2.25.817 3.394.817 2.732 0 5.367-1.499 6.691-4.102l.029-.057c1.878-3.692.393-8.18-3.299-10.057-3.693-1.881-8.222-.379-10.1 3.313-1.878 3.693-.408 8.209 3.285 10.086z"/><path d="m284.245 407.744c-2.929 2.93-2.929 7.678 0 10.607 1.464 1.464 3.384 2.196 5.303 2.196s3.839-.732 5.303-2.196l.028-.028c2.929-2.93 2.915-7.664-.014-10.593s-7.692-2.916-10.62.014z"/><path d="m222.787 360.51c-3.706-1.854-8.224-.322-10.076 3.382-1.853 3.705-.351 8.21 3.354 10.063 1.077.539 2.221.794 3.348.794 2.751 0 5.4-1.52 6.714-4.147l.028-.057c1.853-3.706.337-8.183-3.368-10.035z"/><path d="m214.144 407.744c-2.929 2.93-2.929 7.678 0 10.607 1.464 1.464 3.384 2.196 5.303 2.196s3.839-.732 5.303-2.196l.028-.028c2.929-2.93 2.915-7.664-.014-10.593s-7.692-2.916-10.62.014z"/><path d="m413.284 270.722c2.78.612 5.453.898 8.009.898 15.583 0 26.75-10.635 30.261-22.815 4.329-15.021-2.232-35.214-26.868-44.051l-17.444-6.255-60.276-23.605c-10.938-4.491-15.064-4.492-24.988-4.479l-26.272.001c16.792-14.151 28.612-34.8 28.612-53.096v-11.46h1.483c7.11 0 12.89-5.78 12.89-12.89v-5.31h3.526c12.42 0 22.524-10.104 22.524-22.521v-44.924c0-4.143-3.358-7.5-7.5-7.5s-7.5 3.357-7.5 7.5v44.924c0 4.077-3.445 7.521-7.524 7.521h-3.526v-5.31c0-7.09-5.78-12.86-12.89-12.86h-3.19c-4.53-18.56-17.91-33.43-37.66-41.16-24.38-9.52-51.81-5.34-67.89 10.06-10.42 1.7-24.37 8.4-29.63 31.1h-6.14c-7.1 0-12.88 5.77-12.88 12.86v25.62c0 7.11 5.78 12.89 12.88 12.89h4.04v11.458c0 18.295 11.83 38.947 28.627 53.096l-26.996-.001c-9.915.014-14.021-.011-24.958 4.479l-60.322 23.611-17.428 6.249c-24.635 8.837-31.196 29.029-26.868 44.051 3.511 12.183 14.676 22.815 30.259 22.815 2.554 0 5.229-.285 8.005-.896l16.568-3.635 64.665-7.739v77.881 39.652c0 4.143 3.358 7.5 7.5 7.5s7.5-3.357 7.5-7.5v-32.151h55.101v96.615h-55.101v-29.828c0-4.143-3.358-7.5-7.5-7.5s-7.5 3.357-7.5 7.5v52.888c0 22.108 17.976 40.095 40.07 40.095h4.932c13.421 0 25.314-6.634 32.596-16.787 7.277 10.153 19.162 16.787 32.573 16.787h4.96c22.095 0 40.07-17.986 40.07-40.095v-127.175-53.284-24.596l64.637 7.739zm-2.374-54.973 8.711 3.124c16.688 5.986 19.867 17.628 17.519 25.778-2.153 7.473-9.371 13.903-20.636 11.42l-10.256-2.25zm-318.481 40.324c-11.262 2.478-18.477-3.949-20.63-11.422-2.349-8.15.83-19.792 17.518-25.778l8.711-3.124 4.154 33.92.508 4.152zm154.554 208.332c0 13.837-11.259 25.095-25.099 25.095h-4.932c-13.824 0-25.07-11.258-25.07-25.095v-8.06h55.101zm-25.743-426.435c1.86-.16 3.59-1.01 4.85-2.38 11.64-12.62 33.6-16.02 53.39-8.28 7.17 2.8 21.94 10.43 27.58 27.18h-104.14c3.19-10.19 9.31-15.72 18.32-16.52zm-20.91 79.348v-11.458h39.41c4.15 0 7.5-3.36 7.5-7.5 0-4.15-3.35-7.5-7.5-7.5h-56.33v-21.37h17.05 123.23v21.37h-51.32c-4.14 0-7.5 3.35-7.5 7.5 0 4.14 3.36 7.5 7.5 7.5h36.947v11.458c0 19.809-19.422 44.374-41.586 52.579-4.825 1.804-8.927 2.644-12.908 2.644-3.961 0-8.054-.84-12.902-2.651-22.156-8.203-41.591-32.769-41.591-52.572zm76.984 64.973v6.536c0 13.837-9.924 25.095-22.123 25.095-12.214 0-22.15-11.258-22.15-25.095v-6.371c1.209.531 2.424 1.038 3.651 1.492 6.559 2.451 12.32 3.593 18.131 3.593 5.831 0 11.601-1.142 18.138-3.585 1.442-.534 2.87-1.135 4.286-1.774.025.035.043.075.067.109zm39.77 282.114c0 13.837-11.247 25.095-25.07 25.095h-4.96c-13.824 0-25.07-11.258-25.07-25.095v-8.06h55.101v8.06zm0-23.059h-55.101v-96.616h55.101zm74.354-189.997-59.354-7.106v-8.848c0-4.143-3.358-7.5-7.5-7.5s-7.5 3.357-7.5 7.5v15.504 33.048 45.784h-125.202v-78.832-15.504c0-4.143-3.358-7.5-7.5-7.5s-7.5 3.357-7.5 7.5v8.848l-59.382 7.107-5.016-40.964 55.045-21.546c.04-.016.079-.031.118-.048 8.236-3.387 9.923-3.368 19.301-3.377l31.093.001v3.412c0 22.108 16.666 40.095 37.15 40.095 20.469 0 37.123-17.986 37.123-40.095v-3.412l29.676-.001c9.397.006 11.093-.009 19.329 3.377.039.016.078.031.117.047l55.018 21.546z"/><path d="m352.724 228.13c1.077.539 2.221.794 3.348.794 2.751 0 5.4-1.52 6.714-4.147l.028-.057c1.853-3.705.337-8.182-3.368-10.034-3.706-1.854-8.224-.322-10.076 3.382-1.853 3.704-.351 8.209 3.354 10.062z"/><path d="m158.469 214.686c-3.706-1.854-8.224-.322-10.076 3.382-1.853 3.705-.351 8.21 3.354 10.063 1.077.539 2.221.794 3.348.794 2.751 0 5.4-1.52 6.714-4.147l.028-.057c1.852-3.706.337-8.183-3.368-10.035z"/><path d="m500.248 81.057c6.48 0 11.752-5.284 11.752-11.78v-50.026c0-6.479-5.272-11.751-11.752-11.751h-63.78c-6.153 0-11.208 4.756-11.703 10.783l-14.412-5.077c-3.167-1.127-6.608-.627-9.441 1.373-3.259 2.299-5.364 6.402-5.364 10.454v38.462c0 4.057 2.102 8.16 5.354 10.455 1.843 1.3 3.942 1.967 6.051 1.967 1.136 0 2.275-.194 3.377-.586l14.435-5.085c.495 6.043 5.549 10.811 11.703 10.811h34.396v287.73h-34.396c-6.153 0-11.208 4.756-11.703 10.784l-14.409-5.076c-3.167-1.129-6.608-.63-9.443 1.37-3.259 2.299-5.365 6.403-5.365 10.456v38.461c0 4.037 2.088 8.134 5.32 10.438 1.847 1.316 3.957 1.996 6.097 1.996 1.125 0 2.259-.188 3.366-.569l14.435-5.085c.495 6.027 5.55 10.782 11.703 10.782h34.396v31.228h-15.63c-4.142 0-7.5 3.357-7.5 7.5s3.358 7.5 7.5 7.5h46.261c4.142 0 7.5-3.357 7.5-7.5s-3.358-7.5-7.5-7.5h-15.631v-31.228h14.384c6.48 0 11.752-5.271 11.752-11.751v-50.054c0-6.48-5.272-11.752-11.752-11.752h-14.384v-287.73zm-75.532-26.698-14.168 4.991v-30.172l14.168 4.991zm0 361.316-14.168 4.991v-30.2l14.168 4.991zm72.284-31.888v43.557h-57.284v-43.557zm-57.284-317.73v-43.557h57.284v43.557z"/></g></g></svg>