<svg xmlns="http://www.w3.org/2000/svg" xmlns:xlink="http://www.w3.org/1999/xlink" id="Capa_1" x="0" y="0" version="1.1" viewBox="0 0 512 512" xml:space="preserve" style="enable-background:new 0 0 512 512"><polygon style="fill:#8ed25e" points="416.313 320.125 296.077 320.125 231.953 416.313 167.828 320.125 7.515 320.125 7.515 95.687 416.313 95.687 504.485 207.906"/><path style="fill:#72c736" d="M179.57,296.078H31.562V95.687H7.515v224.438h160.313l64.125,96.188l16.031-24.047l-61.745-92.618	C184.753,297.418,182.25,296.078,179.57,296.078z"/><path d="M510.394,203.263L422.222,91.044c-1.424-1.813-3.602-2.872-5.909-2.872H353.19c-4.151,0-7.515,3.364-7.515,7.515	c0,4.151,3.364,7.515,7.515,7.515h59.47l82.268,104.705L412.66,312.61H296.077c-2.513,0-4.859,1.255-6.252,3.347l-57.872,86.81	l-57.872-86.81c-1.394-2.091-3.739-3.347-6.252-3.347H15.029V103.201h301.088c4.151,0,7.515-3.364,7.515-7.515	c0-4.151-3.364-7.515-7.515-7.515H7.515C3.365,88.172,0,91.536,0,95.687v224.438c0,4.151,3.365,7.515,7.515,7.515h156.291	l61.894,92.841c2.922,4.385,9.583,4.386,12.504,0l61.895-92.841h116.214c2.307,0,4.485-1.059,5.909-2.872l88.172-112.219	C512.535,209.824,512.535,205.988,510.394,203.263z"/><path d="M159.311,352.188c0-4.151-3.365-7.515-7.515-7.515H71.64c-4.15,0-7.515,3.364-7.515,7.515c0,4.151,3.365,7.515,7.515,7.515	h80.157C155.947,359.702,159.311,356.339,159.311,352.188z"/><path d="M175.342,384.25c0-4.151-3.365-7.515-7.515-7.515H87.671c-4.15,0-7.515,3.364-7.515,7.515c0,4.151,3.365,7.515,7.515,7.515	h80.157C171.978,391.765,175.342,388.401,175.342,384.25z"/><path d="M191.875,408.798h-88.172c-4.15,0-7.515,3.364-7.515,7.515c0,4.151,3.365,7.515,7.515,7.515h88.172	c4.15,0,7.515-3.364,7.515-7.515C199.389,412.162,196.025,408.798,191.875,408.798z"/><path d="M79.656,183.358c4.15,0,7.515-3.364,7.515-7.515c0-4.151-3.365-7.515-7.515-7.515H47.593c-4.15,0-7.515,3.364-7.515,7.515	v64.125c0,4.151,3.365,7.515,7.515,7.515s7.515-3.364,7.515-7.515v-24.548H71.64c4.15,0,7.515-3.364,7.515-7.515	c0-4.151-3.365-7.515-7.515-7.515H55.108v-17.033H79.656z"/><path d="M96.188,207.906c0,21.823,14.159,39.577,31.562,39.577s31.562-17.755,31.562-39.577s-14.159-39.577-31.562-39.577	S96.188,186.083,96.188,207.906z M144.282,207.906c0,13.306-7.571,24.548-16.532,24.548s-16.532-11.242-16.532-24.548	c0-13.306,7.571-24.548,16.532-24.548S144.282,194.6,144.282,207.906z"/><path d="M288.564,207.906c0,21.823,14.159,39.577,31.562,39.577s31.562-17.755,31.562-39.577s-14.159-39.577-31.562-39.577	S288.564,186.083,288.564,207.906z M336.658,207.906c0,13.306-7.571,24.548-16.532,24.548c-8.962,0-16.532-11.242-16.532-24.548	c0-13.306,7.571-24.548,16.532-24.548C329.087,183.358,336.658,194.6,336.658,207.906z"/><path d="M183.859,168.329c-4.15,0-7.515,3.364-7.515,7.515v64.125c0,4.151,3.365,7.515,7.515,7.515h32.063	c4.15,0,7.515-3.364,7.515-7.515c0-4.151-3.365-7.515-7.515-7.515h-24.548v-56.611C191.374,171.692,188.009,168.329,183.859,168.329	z"/><path d="M239.969,168.329c-4.15,0-7.515,3.364-7.515,7.515v64.125c0,4.151,3.365,7.515,7.515,7.515h32.063	c4.151,0,7.515-3.364,7.515-7.515c0-4.151-3.364-7.515-7.515-7.515h-24.548v-56.611	C247.483,171.692,244.119,168.329,239.969,168.329z"/><path d="M383.741,247.465c3.241,0.215,6.276-1.679,7.487-4.706l10.404-26.012l16.253,27.087c1.736,2.894,5.298,4.291,8.542,3.35	c2.851-0.828,4.991-3.339,5.359-6.283l8.016-64.125c0.515-4.118-2.407-7.874-6.525-8.389c-4.122-0.505-7.874,2.406-8.389,6.525	l-5.315,42.524l-12.846-21.411c-1.469-2.448-4.203-3.859-7.044-3.624c-2.847,0.228-5.317,2.049-6.377,4.699l-7.4,18.5L375.51,174.02	c-1.008-4.026-5.089-6.469-9.114-5.468c-4.027,1.007-6.474,5.087-5.468,9.114l16.031,64.125	C377.751,244.953,380.489,247.246,383.741,247.465z"/></svg>