<svg id="color" enable-background="new 0 0 24 24" height="512" viewBox="0 0 24 24" width="512" xmlns="http://www.w3.org/2000/svg"><path d="m21.499 15c-.209 0-.419-.065-.599-.2-.442-.331-.532-.958-.2-1.4l1.05-1.4-1.05-1.4c-.332-.442-.242-1.069.2-1.4.441-.333 1.067-.242 1.399.2l1.5 2c.267.355.267.845 0 1.2l-1.5 2c-.195.262-.495.4-.8.4z" fill="#607d8b"/><path d="m2.501 15c-.305 0-.605-.138-.801-.4l-1.5-2c-.267-.355-.267-.845 0-1.2l1.5-2c.331-.441.958-.532 1.4-.2.442.331.532.958.2 1.4l-1.05 1.4 1.05 1.4c.332.442.242 1.069-.2 1.4-.18.135-.39.2-.599.2z" fill="#607d8b"/><path d="m16.25 22h-8.5c-1.517 0-2.75-1.233-2.75-2.75v-14.5c0-1.517 1.233-2.75 2.75-2.75h8.5c1.517 0 2.75 1.233 2.75 2.75v14.5c0 1.517-1.233 2.75-2.75 2.75z" fill="#2196f3"/><path d="m24 12h-2.25l-1.05 1.4c-.332.442-.242 1.069.2 1.4.18.135.39.2.599.2.305 0 .604-.138.801-.4l1.5-2c.133-.178.2-.389.2-.6z" fill="#546d79"/><path d="m2.25 12h-2.25c0 .211.067.422.2.6l1.5 2c.196.262.496.4.801.4.209 0 .419-.065.599-.2.442-.331.532-.958.2-1.4z" fill="#546d79"/><path d="m19 12h-14v7.25c0 1.517 1.233 2.75 2.75 2.75h8.5c1.517 0 2.75-1.233 2.75-2.75z" fill="#1d83d4"/></svg>