<svg xmlns="http://www.w3.org/2000/svg" xmlns:xlink="http://www.w3.org/1999/xlink" id="Capa_1" x="0" y="0" version="1.1" viewBox="0 0 512 512" xml:space="preserve" style="enable-background:new 0 0 512 512"><g><g><g><polygon points="416 160 416 192 480 192 480 480 192 480 192 416 160 416 160 512 512 512 512 160"/><rect width="32" height="32" x="320"/><rect width="32" height="32" x="64"/><rect width="32" height="32" x="128"/><rect width="32" height="32" x="64" y="320"/><rect width="32" height="32" x="192"/><rect width="32" height="32" x="256"/><rect width="32" height="32"/><rect width="32" height="32" y="192"/><rect width="32" height="32" y="256"/><rect width="32" height="32" y="128"/><rect width="32" height="32" y="64"/><rect width="32" height="32" x="320" y="64"/><rect width="32" height="32" y="320"/><path d="M254.288,387.296L295.76,428.8l147.088-147.088l-42.592-42.576L377.6,171.2l-78.064-78.064l-157.808,64.992 c-24.517,10.085-36.216,38.135-26.131,62.651c0.336,0.817,0.694,1.624,1.075,2.421l-1.92,1.936 c-24.994,24.993-24.995,65.515-0.002,90.51c0.001,0.001,0.002,0.002,0.002,0.002l60.32,60.336L254.288,387.296z M128,270.4 c-0.023-8.491,3.353-16.638,9.376-22.624l56.576,56.576l22.624-22.64l-67.888-67.888c-6.251-6.246-6.254-16.377-0.008-22.627 c1.494-1.495,3.27-2.68,5.224-3.485L292,130.864l57.6,57.6l22.624,67.888l25.312,25.296l-101.84,101.84l-26.4-26.4 l-79.184-11.312l-52.8-52.8C131.32,286.994,127.968,278.866,128,270.4z"/></g></g></g></svg>