<svg height="512" viewBox="0 0 128 128" width="512" xmlns="http://www.w3.org/2000/svg"><g><path d="m20.823 14.226h86.354v107.468h-86.354z" fill="#f45858"/><path d="m31.211 24.088h65.579v87.273h-65.579z" fill="#dfeef4"/><path d="m81.483 24.088v-13.4a4.379 4.379 0 0 0 -4.383-4.382h-26.2a4.379 4.379 0 0 0 -4.379 4.379v13.4z" fill="#3ea2e5"/><g fill="#f2da30"><path d="m41.653 59.861h15.727v15.727h-15.727z"/><path d="m41.653 85.611h15.727v15.727h-15.727z"/><path d="m41.653 34.111h15.727v15.727h-15.727z"/></g><g><path d="m20.823 106.009a1.75 1.75 0 0 0 1.75-1.75v-4.5a1.75 1.75 0 0 0 -3.5 0v4.5a1.749 1.749 0 0 0 1.75 1.75z"/><path d="m107.177 34.369a1.749 1.749 0 0 0 -1.75 1.75v83.824h-82.854v-7.443a1.75 1.75 0 0 0 -3.5 0v9.2a1.749 1.749 0 0 0 1.75 1.75h86.354a1.749 1.749 0 0 0 1.75-1.75v-85.581a1.749 1.749 0 0 0 -1.75-1.75z"/><path d="m107.177 12.476h-23.944v-1.79a6.135 6.135 0 0 0 -6.133-6.129h-26.2a6.135 6.135 0 0 0 -6.129 6.129v1.79h-23.948a1.749 1.749 0 0 0 -1.75 1.75v76.874a1.75 1.75 0 0 0 3.5 0v-75.124h22.194v6.363h-13.557a1.75 1.75 0 0 0 -1.75 1.75v87.272a1.75 1.75 0 0 0 1.75 1.75h65.579a1.749 1.749 0 0 0 1.75-1.75v-87.272a1.749 1.749 0 0 0 -1.75-1.75h-13.556v-6.363h22.194v12.465a1.75 1.75 0 0 0 3.5 0v-14.215a1.749 1.749 0 0 0 -1.75-1.75zm-12.138 97.135h-62.079v-83.772h62.079zm-46.772-87.272v-11.653a2.632 2.632 0 0 1 2.633-2.629h26.2a2.632 2.632 0 0 1 2.629 2.629v11.653z"/><path d="m63.9 41.975a1.751 1.751 0 0 0 1.75 1.75h20.697a1.75 1.75 0 0 0 0-3.5h-20.695a1.75 1.75 0 0 0 -1.752 1.75z"/><path d="m86.347 65.975h-20.695a1.75 1.75 0 0 0 0 3.5h20.695a1.75 1.75 0 1 0 0-3.5z"/><path d="m86.347 91.725h-20.695a1.75 1.75 0 0 0 0 3.5h20.695a1.75 1.75 0 1 0 0-3.5z"/><path d="m60.178 30.761-1.871 1.871a1.736 1.736 0 0 0 -.927-.271h-15.727a1.751 1.751 0 0 0 -1.75 1.75v15.728a1.75 1.75 0 0 0 1.75 1.75h15.727a1.749 1.749 0 0 0 1.75-1.75v-13.081l3.523-3.523a1.75 1.75 0 0 0 -2.475-2.474zm-4.548 17.328h-12.23v-12.228h11.677l-5.549 5.549-1.395-1.395a1.75 1.75 0 1 0 -2.475 2.474l2.633 2.633a1.749 1.749 0 0 0 2.475 0l4.864-4.864z"/><path d="m60.178 56.511-1.871 1.871a1.736 1.736 0 0 0 -.927-.271h-15.727a1.751 1.751 0 0 0 -1.75 1.75v15.728a1.75 1.75 0 0 0 1.75 1.75h15.727a1.749 1.749 0 0 0 1.75-1.75v-13.081l3.523-3.523a1.75 1.75 0 0 0 -2.475-2.474zm-4.548 17.328h-12.23v-12.228h11.677l-5.549 5.549-1.395-1.395a1.75 1.75 0 0 0 -2.475 2.474l2.633 2.633a1.749 1.749 0 0 0 2.475 0l4.864-4.864z"/><path d="m60.178 82.261-1.871 1.871a1.736 1.736 0 0 0 -.927-.271h-15.727a1.751 1.751 0 0 0 -1.75 1.75v15.728a1.75 1.75 0 0 0 1.75 1.75h15.727a1.749 1.749 0 0 0 1.75-1.75v-13.081l3.523-3.523a1.75 1.75 0 1 0 -2.475-2.474zm-4.548 17.328h-12.23v-12.228h11.677l-5.549 5.549-1.395-1.395a1.75 1.75 0 0 0 -2.475 2.474l2.633 2.633a1.749 1.749 0 0 0 2.475 0l4.864-4.864z"/></g></g></svg>