<svg id="Capa_1" enable-background="new 0 0 512 512" height="512" viewBox="0 0 512 512" width="512" xmlns="http://www.w3.org/2000/svg"><g><path d="m165.01 296.208v56.459l56.459-28.223z"/><path d="m315 128.5c0-45.49-37.01-82.5-82.5-82.5-45.448 0-82.5 37.025-82.5 82.5 0 19.945 7.232 38.555 18.917 52.5h-33.596c-16.709-30.797-18.178-68.593-1.751-101.619-43.678-14.391-88.57 18.384-88.57 64.119 0 13.867 4.207 26.768 11.406 37.5h-56.406v65.566h90.01v30h-90.01v94h90.01v30h-90.01v65.434h390v-285h-93.908c11.805-14.273 18.908-32.572 18.908-52.5zm-179.99 272.704v-153.542l153.541 76.788z"/><path d="m420 246.73v153.542l92 45v-243.542z"/></g></svg>