<svg height="512" viewBox="0 0 64 64" width="512" xmlns="http://www.w3.org/2000/svg"><g id="flat"><path d="m8 51h48v10h-48z" fill="#2d75bb"/><path d="m8 3h48v48h-48z" fill="#aabece"/><path d="m51 27a18.992 18.992 0 0 1 -34.27 11.29 19 19 0 0 1 -3.73-11.29 18.988 18.988 0 0 1 27.45-17.01l.18.09a18.981 18.981 0 0 1 10.31 15.5c.04.47.06.94.06 1.42z" fill="#5a6470"/><path d="m32 44v-2a15.013 15.013 0 0 0 14.884-13.124l1.984.248a17.015 17.015 0 0 1 -16.868 14.876z" fill="#f4f4e6"/><path d="m17 27h-2a17.019 17.019 0 0 1 17-17v2a15.017 15.017 0 0 0 -15 15z" fill="#f4f4e6"/><path d="m36.94 27.58a5.42 5.42 0 0 0 .06-.58 5.005 5.005 0 0 0 -.84-2.78l10.82-8.9a18.887 18.887 0 0 1 3.96 10.26z" fill="#cfdfe8"/><path d="m46.98 15.32-10.82 8.9a4.972 4.972 0 0 0 -2.58-1.94l6.87-12.29.18.09a18.96 18.96 0 0 1 6.35 5.24z" fill="#f4f4e6"/><path d="m28.22 30.24-11.49 8.05a18.635 18.635 0 0 1 -2.98-6.02l13.32-4.6a4.92 4.92 0 0 0 1.15 2.57z" fill="#cfdfe8"/><circle cx="32" cy="27" fill="#394d5c" r="6"/><path d="m28 42h2v2h-2z" fill="#f4f4e6"/><path d="m16 55h32v6h-32z" fill="#50b4f8"/><path d="m51 54h2v2h-2z" fill="#f4f4e6"/><g fill="#5a6470"><path d="m13 12h-2v-5a1 1 0 0 1 1-1h5v2h-4z"/><path d="m53 12h-2v-4h-4v-2h5a1 1 0 0 1 1 1z"/><path d="m52 48h-5v-2h4v-4h2v5a1 1 0 0 1 -1 1z"/><path d="m17 48h-5a1 1 0 0 1 -1-1v-5h2v4h4z"/></g></g></svg>