<svg id="Capa_1" enable-background="new 0 0 512 512" height="512" viewBox="0 0 512 512" width="512" xmlns="http://www.w3.org/2000/svg"><g><g><path d="m446.059 109.684c-7.171 0-378.037 0-380.116 0-19.799 0-35.907 16.108-35.907 35.908v269.336c0 17.512 12.977 32.688 30.246 35.455l6.467 5.163h372.924l12.047-5.163c17.269-2.767 30.246-17.943 30.246-35.455 0-8.961 0-261.23 0-269.336 0-19.8-16.108-35.908-35.907-35.908z" fill="#365e7d"/><path d="m64.289 414.927v-269.336c0-19.8 16.108-35.908 35.907-35.908-20.909 0-33.87 0-34.253 0-19.799 0-35.907 16.108-35.907 35.908v269.336c0 17.512 12.977 32.688 30.246 35.455l6.467 5.163h34.253l-6.467-5.163c-17.27-2.767-30.246-17.943-30.246-35.455z" fill="#2b4d66"/><path d="m445.338 173.105h-376.53l-6.516 6.802v232.066c0 3.558 2.884 6.443 6.442 6.443h374.532c3.557 0 6.442-2.885 6.442-6.443 0-6.084 0-225.025 0-232.066z" fill="#e4f6ff"/><path d="m104.17 411.973v-232.066l6.516-6.802h-41.878l-6.516 6.802v232.066c0 3.558 2.884 6.443 6.442 6.443h41.878c-3.558 0-6.442-2.885-6.442-6.443z" fill="#d3effb"/><path d="m104.17 141.7h-35.436c-3.558 0-6.442 2.885-6.442 6.443v31.765h41.878l2.755-2.939v-33.223z" fill="#dd636e"/><path d="m443.266 141.699c-16.637 0-325.911 0-339.096 0v38.208h345.538v-31.765c0-3.558-2.884-6.443-6.442-6.443z" fill="#b1e4f9"/><path d="m506.005 450.382h-500.01c-3.311 0-5.995 2.71-5.995 6.054v20.823c0 15.45 12.519 28.091 27.82 28.091h456.36c15.301 0 27.82-12.641 27.82-28.091v-20.823c0-3.344-2.684-6.054-5.995-6.054z" fill="#407093"/><path d="m62.293 477.259v-20.823c0-3.344 2.684-6.054 5.995-6.054h-62.292c-3.311 0-5.995 2.71-5.995 6.054v20.823c0 15.45 12.519 28.091 27.82 28.091h62.293c-15.302 0-27.821-12.641-27.821-28.091z" fill="#365e7d"/><path d="m181.32 450.382v13.97c0 6.866 5.563 12.484 12.363 12.484h124.635c6.8 0 12.363-5.618 12.363-12.484v-13.97z" fill="#5c90b9"/><path d="m243.612 464.352v-13.97h-62.292v13.97c0 6.866 5.563 12.484 12.363 12.484h62.293c-6.8 0-12.364-5.618-12.364-12.484z" fill="#4a80aa"/></g><path d="m122.773 6.65h180.262c16.076 0 29.108 13.032 29.108 29.108v84.355c0 16.076-13.032 29.108-29.108 29.108h-106.501c-7.272 0-13.168 5.896-13.168 13.168v18.803c0 6.903-8.256 10.46-13.273 5.718l-36.066-34.09c-2.445-2.311-5.681-3.598-9.045-3.598h-2.209c-16.076 0-29.108-13.032-29.108-29.108v-84.356c0-16.076 13.032-29.108 29.108-29.108z" fill="#fff0af"/><path d="m389.227 209.487h-180.262c-16.076 0-29.108 13.032-29.108 29.108v84.355c0 16.076 13.032 29.108 29.108 29.108h106.501c7.272 0 13.168 5.896 13.168 13.168v18.803c0 6.903 8.256 10.46 13.273 5.718l36.066-34.09c2.445-2.311 5.681-3.598 9.045-3.598h2.209c16.076 0 29.108-13.032 29.108-29.108v-84.355c0-16.077-13.032-29.109-29.108-29.109z" fill="#dd636e"/><path d="m177.123 152.82c-2.445-2.311-5.682-3.598-9.045-3.598h-2.209c-16.076 0-29.108-13.032-29.108-29.108v-84.356c0-16.076 13.032-29.108 29.108-29.108h-43.096c-16.076 0-29.109 13.032-29.109 29.108v84.355c0 16.076 13.032 29.108 29.109 29.108h2.208c3.364 0 6.6 1.288 9.045 3.598l36.066 34.09c5.017 4.742 13.273 1.185 13.273-5.718v-18.802c0-1.13.157-2.22.425-3.267z" fill="#ffe07d"/><g fill="#da4a54"><path d="m222.952 322.95v-84.355c0-16.076 13.032-29.109 29.108-29.109h-43.096c-16.076 0-29.109 13.032-29.109 29.109v84.355c0 16.076 13.032 29.108 29.109 29.108h43.096c-16.075.001-29.108-13.032-29.108-29.108z"/><path d="m358.562 352.059h-43.096c7.273 0 13.168 5.896 13.168 13.168v18.803c0 6.903 8.256 10.46 13.273 5.718l29.398-27.787c-1.456-5.69-6.601-9.902-12.743-9.902z"/></g><g><path d="m284.717 55.549h-143.626c-4.267 0-7.726-3.459-7.726-7.726s3.459-7.726 7.726-7.726h143.626c4.267 0 7.726 3.459 7.726 7.726s-3.459 7.726-7.726 7.726z" fill="#ffd064"/></g><g><path d="m284.717 86.475h-143.626c-4.267 0-7.726-3.459-7.726-7.726 0-4.268 3.459-7.726 7.726-7.726h143.626c4.267 0 7.726 3.459 7.726 7.726.001 4.267-3.459 7.726-7.726 7.726z" fill="#ffd064"/></g><g><path d="m284.717 117.399h-143.626c-4.267 0-7.726-3.459-7.726-7.726 0-4.268 3.459-7.726 7.726-7.726h143.626c4.267 0 7.726 3.459 7.726 7.726.001 4.267-3.459 7.726-7.726 7.726z" fill="#ffd064"/></g><g><path d="m370.909 258.894h-143.626c-4.267 0-7.726-3.459-7.726-7.726 0-4.268 3.459-7.726 7.726-7.726h143.626c4.267 0 7.726 3.459 7.726 7.726 0 4.268-3.459 7.726-7.726 7.726z" fill="#d82e3d"/></g><g><path d="m370.909 289.82h-143.626c-4.267 0-7.726-3.459-7.726-7.726 0-4.268 3.459-7.726 7.726-7.726h143.626c4.267 0 7.726 3.459 7.726 7.726s-3.459 7.726-7.726 7.726z" fill="#d82e3d"/></g><g><path d="m370.909 320.744h-143.626c-4.267 0-7.726-3.459-7.726-7.726 0-4.268 3.459-7.726 7.726-7.726h143.626c4.267 0 7.726 3.459 7.726 7.726 0 4.268-3.459 7.726-7.726 7.726z" fill="#d82e3d"/></g></g></svg>