<?xml version="1.0" encoding="iso-8859-1"?>
<!-- Generator: Adobe Illustrator 19.0.0, SVG Export Plug-In . SVG Version: 6.00 Build 0)  -->
<svg version="1.1" id="Capa_1" xmlns="http://www.w3.org/2000/svg" xmlns:xlink="http://www.w3.org/1999/xlink" x="0px" y="0px"
	 viewBox="0 0 511.999 511.999" style="enable-background:new 0 0 511.999 511.999;" xml:space="preserve">
<g>
	<ellipse style="fill:#507575;" cx="187.871" cy="464.408" rx="176.349" ry="40.079"/>
	<ellipse style="fill:#507575;" cx="187.871" cy="464.408" rx="176.349" ry="40.079"/>
</g>
<circle style="fill:#F9A01B;" cx="284.061" cy="344.17" r="32.063"/>
<circle style="fill:#F7833B;" cx="284.061" cy="344.17" r="16.032"/>
<circle style="fill:#F9A01B;" cx="91.68" cy="344.17" r="32.063"/>
<circle style="fill:#F7833B;" cx="91.68" cy="344.17" r="16.032"/>
<path style="fill:#FFDB5C;" d="M187.868,304.089c-61.979,0-112.222,50.243-112.222,112.222v79.013
	c30.49,5.722,69.59,9.161,112.222,9.161s81.732-3.439,112.222-9.161V416.31C300.089,354.332,249.846,304.089,187.868,304.089z"/>
<path style="fill:#FAD03F;" d="M107.709,416.31c0-56.535,41.808-103.297,96.19-111.077c-5.236-0.749-10.588-1.145-16.032-1.145
	c-61.979,0-112.222,50.243-112.222,112.222v79.013c9.843,1.848,20.596,3.453,32.063,4.785
	C107.709,500.109,107.709,416.31,107.709,416.31z"/>
<ellipse style="fill:#974F2A;" cx="187.871" cy="408.297" rx="24.048" ry="16.032"/>
<polygon style="fill:#ECF0F0;" points="203.899,480.437 171.836,480.437 163.82,448.374 187.868,432.342 211.915,448.374 "/>
<polygon style="fill:#9EB2B2;" points="246.661,125.252 230.27,170.468 500.486,268.42 500.486,217.263 "/>
<polygon style="fill:#8AA3A3;" points="236.893,152.197 230.27,170.468 500.486,268.42 500.486,247.855 "/>
<path style="fill:#F3561D;" d="M145.397,216.437c14.306-17.762,33.772-46.122,47.854-84.968
	c7.772-21.442,16.988-54.582,17.71-95.896c30.144,10.928,60.288,21.854,90.432,32.782c-14.306,17.762-33.772,46.122-47.854,84.968
	c-7.772,21.442-16.988,54.582-17.71,95.896C205.684,238.292,175.54,227.364,145.397,216.437z"/>
<g>
	
		<rect x="166.574" y="168.698" transform="matrix(0.3408 -0.9401 0.9401 0.3408 -93.2287 332.6831)" style="fill:#F9A01B;" width="48.093" height="128.249"/>
	
		<rect x="232.131" y="-12.172" transform="matrix(0.3408 -0.9401 0.9401 0.3408 120.0267 275.0877)" style="fill:#F9A01B;" width="48.093" height="128.249"/>
</g>
<g>
	<polygon style="fill:#F7833B;" points="128.423,216.218 122.129,233.581 242.705,277.29 249.004,259.912 	"/>
	<polygon style="fill:#F7833B;" points="194.091,35.066 187.692,52.718 308.268,96.427 314.782,78.456 	"/>
</g>
<path d="M307.604,427.309v-11c0-12.823-2.035-25.179-5.783-36.771c13.233-6.642,21.815-20.264,21.815-35.372
	c0-21.823-17.755-39.578-39.578-39.578c-11.109,0-21.564,4.655-28.996,12.665c-19.171-13.047-42.307-20.681-67.194-20.681
	c-24.882,0-48.015,7.632-67.184,20.674c-7.442-7.995-17.982-12.658-29.006-12.658c-21.823,0-39.578,17.755-39.578,39.578
	c0,15.174,8.565,28.745,21.814,35.376c-3.748,11.59-5.782,23.944-5.782,36.767v10.997c-42.551,8.726-64.127,21.2-64.127,37.098
	c0,14.997,19.346,26.996,57.501,35.668c4.053,0.921,8.269,1.792,12.625,2.612c0.001,0,0.002,0,0.004,0.001
	c32.007,6.031,71.795,9.312,113.734,9.312c19.925,0,39.49-0.742,58.149-2.207c4.137-0.324,7.228-3.942,6.904-8.079
	c-0.326-4.138-3.948-7.259-8.08-6.904c-18.269,1.434-37.437,2.16-56.973,2.16c-38.349,0-74.746-2.786-104.707-7.93v-72.73
	c0-57.735,46.971-104.707,104.707-104.707s104.707,46.972,104.707,104.707v72.728c-7.751,1.329-16.322,2.561-25.776,3.653
	c-4.123,0.476-7.079,4.204-6.603,8.327c0.443,3.831,3.691,6.654,7.456,6.654c0.288,0,0.579-0.017,0.872-0.051
	c11.721-1.354,22.707-3.001,32.817-4.896c0.134-0.022,0.268-0.045,0.399-0.075c14.874-2.804,27.821-6.151,38.249-9.935
	c21.359-7.749,31.743-17.011,31.743-28.311C371.731,448.526,350.149,436.048,307.604,427.309z M64.835,485.417
	c-37.574-8.539-45.802-18.063-45.802-21.013c0-3.017,9.242-13.152,49.097-21.736v43.477
	C67.021,485.907,65.922,485.664,64.835,485.417z M79.479,365.465c-7.538-4.307-12.35-12.346-12.35-21.298
	c0-13.537,11.013-24.548,24.549-24.548c6.39,0,12.517,2.529,17.061,6.91C96.514,337.316,86.503,350.552,79.479,365.465z
	 M266.997,326.53c4.535-4.387,10.621-6.911,17.061-6.911c13.536,0,24.549,11.012,24.549,24.549c0,8.914-4.823,16.981-12.351,21.295
	C289.231,350.551,279.22,337.315,266.997,326.53z M307.604,486.136v-43.473c39.949,8.606,49.097,18.77,49.097,21.741
	C356.701,468.675,343.568,478.338,307.604,486.136z"/>
<path d="M219.931,383.746h1.002c4.15,0,7.515-3.364,7.515-7.515s-3.365-7.515-7.515-7.515h-1.002c-4.15,0-7.515,3.364-7.515,7.515
	S215.781,383.746,219.931,383.746z"/>
<path d="M156.806,383.746c4.15,0,7.515-3.364,7.515-7.515s-3.365-7.515-7.515-7.515h-1.002c-4.15,0-7.515,3.364-7.515,7.515
	s3.365,7.515,7.515,7.515H156.806z"/>
<path d="M132.621,446.063c-1.276,3.95,0.892,8.185,4.842,9.461c3.219,1.04,8.356,2.279,14.544,2.279c2.003,0,4.12-0.138,6.313-0.447
	l6.225,24.902c0.836,3.346,3.842,5.692,7.29,5.692h32.063c3.448,0,6.454-2.347,7.29-5.692l6.225-24.902
	c2.193,0.309,4.31,0.447,6.312,0.447c6.186,0,11.325-1.239,14.545-2.279c3.95-1.276,6.117-5.511,4.842-9.461
	c-1.275-3.949-5.511-6.121-9.461-4.841c-3.576,1.155-10.628,2.67-18.475,0.295l-14.082-9.388c-0.545-0.641-1.049-1.281-1.515-1.913
	c11.734-3.404,19.849-11.823,19.849-21.922c0-13.204-13.863-23.547-31.562-23.547s-31.562,10.342-31.562,23.547
	c0,10.099,8.115,18.519,19.849,21.922c-0.466,0.632-0.97,1.272-1.515,1.913l-14.082,9.388c-7.848,2.375-14.899,0.859-18.475-0.295
	C138.129,439.942,133.896,442.114,132.621,446.063z M172.658,452.738c2.911-1.529,5.479-3.298,7.742-5.187
	c-0.029,0.271-0.047,0.544-0.047,0.823v24.548h-2.649L172.658,452.738z M195.382,472.922v-24.548c0-0.279-0.018-0.552-0.047-0.823
	c2.263,1.89,4.832,3.658,7.742,5.187l-5.046,20.184H195.382z M171.335,408.295c0-3.473,6.441-8.517,16.533-8.517
	s16.533,5.044,16.533,8.517s-6.441,8.517-16.533,8.517S171.335,411.766,171.335,408.295z"/>
<path d="M325.866,153.964c-1.415,3.902,0.602,8.211,4.504,9.625l167.553,60.737c4.058,1.474,8.632-0.892,9.797-5.038
	c1.05-3.736-1.028-7.769-4.675-9.091L335.492,149.46C331.59,148.041,327.281,150.061,325.866,153.964z"/>
<path d="M503.047,261.355L255.42,171.592c1.579-5.283,3.304-10.523,5.183-15.707c1.879-5.183,3.911-10.311,6.085-15.38
	l38.327,13.893c4.058,1.474,8.633-0.892,9.798-5.038c1.05-3.736-1.029-7.769-4.676-9.091l-37.142-13.465
	c4.936-10.032,10.452-19.782,16.519-29.183l16.193,5.87c3.854,1.396,8.232-0.661,9.626-4.504l16.39-45.216
	c1.414-3.902-0.602-8.211-4.504-9.625L206.644,0.437c-3.853-1.394-8.232,0.659-9.626,4.504l-16.39,45.216
	c-1.415,3.902,0.602,8.211,4.504,9.625l16.193,5.87c-2.654,21.574-7.738,42.84-15.138,63.255
	c-7.402,20.416-17.119,39.993-28.91,58.263l-16.194-5.871c-3.853-1.395-8.232,0.659-9.626,4.504l-16.39,45.216
	c-1.415,3.902,0.602,8.211,4.504,9.625l120.575,43.708c3.853,1.4,8.231-0.656,9.626-4.504l16.39-45.215
	c1.415-3.902-0.602-8.211-4.504-9.625l-16.197-5.872c1.366-11.105,3.381-22.124,6.02-32.989l246.444,89.336
	c4.058,1.474,8.632-0.892,9.797-5.038C508.773,266.71,506.694,262.677,503.047,261.355z M208.587,17.128l106.445,38.586
	L303.763,86.8L197.317,48.214L208.587,17.128z M238.201,267.664l-106.445-38.586l11.269-31.085l106.445,38.587L238.201,267.664z
	 M171.752,192.419c11.573-18.385,21.168-37.988,28.563-58.389c7.395-20.398,12.589-41.605,15.485-63.129l59.24,21.474
	c-11.572,18.382-21.172,37.988-28.567,58.387c-7.397,20.405-12.592,41.603-15.488,63.129L171.752,192.419z"/>
<g>
</g>
<g>
</g>
<g>
</g>
<g>
</g>
<g>
</g>
<g>
</g>
<g>
</g>
<g>
</g>
<g>
</g>
<g>
</g>
<g>
</g>
<g>
</g>
<g>
</g>
<g>
</g>
<g>
</g>
</svg>
