<svg id="smaller" enable-background="new 0 0 300 300" height="512" viewBox="0 0 300 300" width="512" xmlns="http://www.w3.org/2000/svg"><g><path d="m254.828 200 2.828-2.828c1.562-1.562 1.562-4.094 0-5.656s-4.094-1.562-5.656 0l-2.828 2.828-2.828-2.828c-1.562-1.562-4.094-1.562-5.656 0s-1.562 4.094 0 5.656l2.828 2.828-2.828 2.828c-1.562 1.562-1.562 4.094 0 5.656.781.781 1.805 1.172 2.828 1.172s2.047-.391 2.828-1.172l2.828-2.828 2.828 2.828c.781.781 1.805 1.172 2.828 1.172s2.047-.391 2.828-1.172c1.562-1.562 1.562-4.094 0-5.656z"/><circle cx="185.172" cy="252" r="4"/><path d="m220.09 44h-26.918c-2.211 0-4 1.789-4 4s1.789 4 4 4h26.918c2.801 0 5.082 2.281 5.082 5.082v165.836c0 2.801-2.281 5.082-5.082 5.082h-165.836c-2.801 0-5.082-2.281-5.082-5.082v-165.836c0-2.801 2.281-5.082 5.082-5.082h118.383c2.211 0 4-1.789 4-4s-1.789-4-4-4h-118.383c-7.215 0-13.082 5.867-13.082 13.082v165.836c0 7.215 5.867 13.082 13.082 13.082h165.836c7.215 0 13.082-5.867 13.082-13.082v-165.836c0-7.215-5.867-13.082-13.082-13.082z"/><path d="m121.172 92c0-2.211-1.789-4-4-4s-4 1.789-4 4v18.344l-45.172-45.172c-1.562-1.562-4.094-1.562-5.656 0s-1.562 4.094 0 5.656l45.172 45.172h-18.344c-2.211 0-4 1.789-4 4s1.789 4 4 4h28c2.211 0 4-1.789 4-4z"/><path d="m189.172 160c0-2.211-1.789-4-4-4h-28c-2.211 0-4 1.789-4 4v28c0 2.211 1.789 4 4 4s4-1.789 4-4v-18.344l45.172 45.172c.781.781 1.805 1.172 2.828 1.172s2.047-.391 2.828-1.172c1.562-1.562 1.562-4.094 0-5.656l-45.172-45.172h18.344c2.211 0 4-1.789 4-4z"/><path d="m212 65.172c-1.562-1.562-4.094-1.562-5.656 0l-45.172 45.172v-18.344c0-2.211-1.789-4-4-4s-4 1.789-4 4v28c0 2.211 1.789 4 4 4h28c2.211 0 4-1.789 4-4s-1.789-4-4-4h-18.344l45.172-45.172c1.562-1.562 1.562-4.094 0-5.656z"/><path d="m117.172 192c2.211 0 4-1.789 4-4v-28c0-2.211-1.789-4-4-4h-28c-2.211 0-4 1.789-4 4s1.789 4 4 4h18.344l-45.172 45.172c-1.562 1.562-1.562 4.094 0 5.656.781.781 1.805 1.172 2.828 1.172s2.047-.391 2.828-1.172l45.172-45.172v18.344c0 2.211 1.789 4 4 4z"/></g></svg>
